<?xml version="1.0" standalone="no"?>
<!DOCTYPE svg PUBLIC "-//W3C//DTD SVG 20010904//EN"
 "http://www.w3.org/TR/2001/REC-SVG-20010904/DTD/svg10.dtd">
<svg version="1.0" xmlns="http://www.w3.org/2000/svg"
 width="165.000000pt" height="226.000000pt" viewBox="0 0 165.000000 226.000000"
 preserveAspectRatio="xMidYMid meet">

<g transform="translate(0.000000,226.000000) scale(0.100000,-0.100000)"
fill="#000000" stroke="none">
<path d="M301 2230 c-95 -20 -185 -100 -218 -194 -17 -47 -18 -98 -16 -636 1
-551 3 -589 21 -647 38 -121 127 -225 241 -282 113 -58 143 -61 614 -61 473 0
480 -1 517 -62 25 -42 25 -94 0 -136 -36 -59 -54 -62 -417 -62 -350 0 -428 7
-502 44 -48 25 -133 108 -152 148 -10 22 -148 103 -158 92 -8 -7 17 -93 44
-152 31 -67 133 -170 198 -200 110 -51 145 -55 557 -56 420 -1 416 -2 488 59
79 67 113 188 77 281 -23 61 -79 122 -135 148 -43 20 -65 21 -515 26 -467 5
-470 5 -530 29 -81 32 -164 117 -195 198 -23 58 -23 59 -21 642 3 637 0 613
61 664 62 53 152 48 210 -11 118 -118 146 -492 59 -777 -11 -39 -66 -163 -121
-277 -54 -114 -100 -220 -100 -236 -1 -31 27 -74 63 -100 25 -17 32 -10 49 43
7 22 42 100 77 172 89 187 138 300 161 375 77 247 66 590 -24 787 -61 135
-196 208 -333 181z"/>
</g>
</svg>
