<?xml version="1.0" standalone="no"?>
<!DOCTYPE svg PUBLIC "-//W3C//DTD SVG 20010904//EN"
 "http://www.w3.org/TR/2001/REC-SVG-20010904/DTD/svg10.dtd">
<svg version="1.0" xmlns="http://www.w3.org/2000/svg"
 width="570.000000pt" height="413.000000pt" viewBox="0 0 570.000000 413.000000"
 preserveAspectRatio="xMidYMid meet">

<g transform="translate(0.000000,413.000000) scale(0.100000,-0.100000)"
fill="#000000" stroke="none">
<path d="M2661 4010 c-95 -20 -185 -100 -218 -194 -17 -47 -18 -98 -16 -636 1
-551 3 -589 21 -647 38 -121 127 -225 241 -282 113 -58 143 -61 614 -61 473 0
480 -1 517 -62 25 -42 25 -94 0 -136 -36 -59 -54 -62 -417 -62 -350 0 -428 7
-502 44 -48 25 -133 108 -152 148 -10 22 -148 103 -158 92 -8 -7 17 -93 44
-152 31 -67 133 -170 198 -200 110 -51 145 -55 557 -56 420 -1 416 -2 488 59
79 67 113 188 77 281 -23 61 -79 122 -135 148 -43 20 -65 21 -515 26 -467 5
-470 5 -530 29 -81 32 -164 117 -195 198 -23 58 -23 59 -21 642 3 637 0 613
61 664 62 53 152 48 210 -11 118 -118 146 -492 59 -777 -11 -39 -66 -163 -121
-277 -54 -114 -100 -220 -100 -236 -1 -31 27 -74 63 -100 25 -17 32 -10 49 43
7 22 42 100 77 172 89 187 138 300 161 375 77 247 66 590 -24 787 -61 135
-196 208 -333 181z"/>
<path d="M127 1473 c-4 -3 -7 -297 -7 -653 0 -489 3 -649 12 -658 19 -19 123
-15 139 5 12 13 15 130 17 641 2 344 1 635 -2 648 -6 23 -11 24 -80 24 -40 0
-76 -3 -79 -7z"/>
<path d="M2363 1050 c-61 -13 -121 -41 -176 -83 -26 -21 -51 -37 -55 -37 -4 0
-23 15 -41 34 -51 53 -121 79 -224 84 -97 5 -148 -8 -224 -59 l-43 -28 0 25
c0 50 -16 64 -75 64 -90 0 -85 29 -85 -455 0 -480 -6 -445 82 -445 76 0 72
-14 78 302 5 270 6 285 28 326 28 53 87 96 152 112 92 22 181 -12 235 -88 l30
-44 3 -291 c2 -187 7 -296 14 -304 12 -15 115 -17 138 -3 13 8 15 54 17 294 2
261 3 288 21 323 40 76 106 115 196 116 102 1 180 -51 210 -140 13 -38 16 -95
16 -314 0 -255 1 -269 19 -279 27 -14 114 -13 129 2 19 19 17 569 -3 635 -20
68 -93 165 -147 197 -90 53 -206 75 -295 56z"/>
<path d="M3332 1050 c-128 -19 -261 -120 -322 -244 -55 -111 -57 -290 -5 -403
36 -80 82 -139 140 -179 158 -108 355 -113 505 -12 l55 37 6 -39 c3 -22 8 -42
12 -46 12 -13 95 -16 116 -5 21 12 21 12 21 441 0 241 -4 431 -9 434 -12 8
-130 10 -137 3 -3 -3 -6 -25 -7 -49 l-2 -44 -47 33 c-86 62 -212 90 -326 73z
m210 -182 c56 -24 112 -82 141 -147 31 -68 30 -189 -2 -255 -54 -109 -145
-166 -263 -165 -126 1 -206 48 -257 149 -27 55 -31 73 -31 144 0 64 5 92 24
132 70 150 231 210 388 142z"/>
<path d="M477 1038 c-17 -13 -18 -34 -15 -314 l3 -299 32 -66 c40 -81 102
-140 191 -182 63 -30 74 -32 177 -32 103 0 114 2 177 32 90 42 158 108 194
186 l29 62 5 290 c6 348 9 339 -82 333 -37 -3 -63 -10 -69 -19 -5 -8 -9 -132
-9 -275 0 -291 -5 -322 -63 -382 -51 -53 -102 -75 -177 -75 -103 0 -196 57
-233 142 -7 16 -13 131 -17 316 l-5 290 -60 3 c-38 2 -67 -2 -78 -10z"/>
<path d="M4436 1034 c-14 -13 -16 -51 -16 -267 0 -278 10 -357 56 -434 39 -68
99 -121 172 -156 62 -30 75 -32 172 -32 96 0 110 3 165 29 83 41 166 126 196
201 23 58 24 72 27 353 2 217 0 297 -9 308 -15 19 -122 19 -138 0 -8 -9 -11
-94 -10 -282 1 -231 -1 -275 -15 -309 -67 -160 -283 -198 -395 -70 -59 68 -61
78 -61 374 0 232 -2 272 -16 285 -21 21 -107 21 -128 0z"/>
<path d="M5390 1025 c-10 -27 -12 -652 -1 -785 l6 -85 64 -3 c36 -2 69 2 75 8
10 10 10 865 0 882 -3 5 -34 8 -70 8 -59 0 -65 -2 -74 -25z"/>
</g>
</svg>
